<svg width="197" height="209" viewBox="0 0 197 209" fill="none" xmlns="http://www.w3.org/2000/svg">
<path d="M51.5 26L96.1003 103.25H6.89969L51.5 26Z" fill="#2DBCB4"/>
<path d="M98.5 103L53.8997 25.75L143.1 25.75L98.5 103Z" fill="#2DBCB4"/>
<path d="M145.5 26L190.1 103.25L100.9 103.25L145.5 26Z" fill="#2DBCB4"/>
<path d="M145.5 183L100.9 105.75L190.1 105.75L145.5 183Z" fill="#2DBCB4"/>
<path d="M98.5 106L143.1 183.25L53.8997 183.25L98.5 106Z" fill="#2DBCB4"/>
<path d="M51.5 183L6.8997 105.75L96.1003 105.75L51.5 183Z" fill="#2DBCB4"/>
<g filter="url(#filter0_d_9_570)">
<path d="M92.4813 114.531C92.4813 107.844 89.3875 102.719 83.2 99.1562C82.2625 98.5938 79.1063 97.1562 73.7313 94.8438C69.4188 92.9688 66.825 90.9688 65.95 88.8438C65.6375 88.0312 65.4813 87.2188 65.4813 86.4062C65.4813 82.8438 67.0125 80.4688 70.075 79.2812C71.075 78.9062 72.1063 78.7188 73.1688 78.7188C77.0438 78.7188 80.1063 80.3438 82.3563 83.5938C82.6063 83.9062 82.825 84.2188 83.0125 84.5312L92.1063 79.6562C90.1063 74.2812 86.0125 70.7812 79.825 69.1562C77.7625 68.5938 75.6688 68.3125 73.5438 68.3125C67.2938 68.3125 62.1688 70.3125 58.1688 74.3125C54.7938 77.75 53.1063 82.0312 53.1063 87.1562C53.1063 94.1562 56.1688 99.4688 62.2938 103.094C63.2938 103.719 66.4188 105.188 71.6688 107.5C75.9813 109.375 78.575 111.344 79.45 113.406C79.7625 114.281 79.9188 115.156 79.9188 116.031C79.9188 119.406 78.45 121.719 75.5125 122.969C74.3875 123.406 73.2 123.625 71.95 123.625C66.7 123.562 61.7313 122.062 57.0438 119.125L52.3563 127.844C58.3563 132.219 64.825 134.406 71.7625 134.406C78.825 134.406 84.325 132.031 88.2625 127.281C91.075 123.781 92.4813 119.531 92.4813 114.531ZM119.144 122.125L145.487 80.125L145.581 69.7188H106.112V80.4062H131.706L105.175 122.969V133H145.581V122.125H119.144Z" fill="#FFF0F0"/>
</g>
<defs>
<filter id="filter0_d_9_570" x="48.3563" y="68.3125" width="101.225" height="74.0938" filterUnits="userSpaceOnUse" color-interpolation-filters="sRGB">
<feFlood flood-opacity="0" result="BackgroundImageFix"/>
<feColorMatrix in="SourceAlpha" type="matrix" values="0 0 0 0 0 0 0 0 0 0 0 0 0 0 0 0 0 0 127 0" result="hardAlpha"/>
<feOffset dy="4"/>
<feGaussianBlur stdDeviation="2"/>
<feComposite in2="hardAlpha" operator="out"/>
<feColorMatrix type="matrix" values="0 0 0 0 0 0 0 0 0 0 0 0 0 0 0 0 0 0 0.25 0"/>
<feBlend mode="normal" in2="BackgroundImageFix" result="effect1_dropShadow_9_570"/>
<feBlend mode="normal" in="SourceGraphic" in2="effect1_dropShadow_9_570" result="shape"/>
</filter>
</defs>
</svg>
